<svg id="Layer_1" data-name="Layer 1" xmlns="http://www.w3.org/2000/svg" viewBox="0 0 218.45 242.36"><defs><style>.cls-1{fill:#e85221;}</style></defs><title>hotline</title><path class="cls-1" d="M273.59,78.71a16.34,16.34,0,0,0-2.82.29c-9.83-40.91-46-71.39-89.18-71.39S102.25,38.08,92.41,79a17,17,0,0,0-2.59-.26A17.36,17.36,0,0,0,72.48,96.05v20.81A17.36,17.36,0,0,0,89.82,134.2a17.16,17.16,0,0,0,6-1.12A34.69,34.69,0,0,0,128,155a6.94,6.94,0,1,0,0-13.87,20.84,20.84,0,0,1-20.81-20.81v-22C108.66,57.63,141.42,25,181.59,25c41.11,0,74.56,34.21,74.56,76.26,0,.17.09.32.1.49v15.16a17.34,17.34,0,0,0,34.68,0V96.05A17.36,17.36,0,0,0,273.59,78.71Z" transform="translate(-72.48 -7.61)"/><path class="cls-1" d="M238.51,175.73H218.15a13.85,13.85,0,0,0-11.37,5.93L192.55,202a13.87,13.87,0,0,1-22.85-.15l-13.63-20.07a13.87,13.87,0,0,0-11.47-6.08h-20A46.62,46.62,0,0,0,78,222.35V243A6.93,6.93,0,0,0,84.92,250H278.19a6.94,6.94,0,0,0,6.94-6.93V222.35A46.62,46.62,0,0,0,238.51,175.73Zm-56.92-17.34a57.18,57.18,0,1,0-57.18-57.18A57.18,57.18,0,0,0,181.59,158.39Z" transform="translate(-72.48 -7.61)"/></svg>