<svg xmlns="http://www.w3.org/2000/svg" fill="#E95221" viewBox="0 0 189.21 243.06"><path d="M173.3,7.37c-41,4.35-71.81,43.73-68.24,84.75,4.67,53.74,54.09,93.81,71,106a9.24,9.24,0,0,0,11.12-.2c17.58-13.74,71.57-60.28,71.57-114A77.05,77.05,0,0,0,173.3,7.37Zm8.44,107.15A30.57,30.57,0,1,1,212.3,84,30.57,30.57,0,0,1,181.74,114.52Z" transform="translate(-87.1 -6.92)"/><path class="cls-1" d="M276,232.6l-12.62-57.19a14.29,14.29,0,0,0-14-11.22h-4c-11.3,15.08-26.57,31.14-47.46,47.46a26.76,26.76,0,0,1-16.38,5.64,26.46,26.46,0,0,1-15.6-5c-11.8-8.53-32.21-25.14-49.29-48.05h-3a14.3,14.3,0,0,0-14,11.3L87.42,232.68a14.29,14.29,0,0,0,14,17.29H262A14.29,14.29,0,0,0,276,232.6Z" transform="translate(-87.1 -6.92)"/></svg>